<svg version="1" xmlns="http://www.w3.org/2000/svg" width="682.667" height="682.667" viewBox="0 0 512.000000 512.000000"><path d="M194.2 88.2V150H247v97H53v115H0l.2 61.7.3 61.8 60 .1c33 .1 60.7 0 61.6-.2 1.4-.4 1.5-6.9 1.5-61.9V362l-26.5-.2-26.4-.3-.1-48v-48l88.2-.3 88.2-.2v97h-52.8l.2 61.8.1 61.7 60.5.1c33.3 0 61-.1 61.6-.4.9-.2 1.2-16.4 1.2-61.8V362H265v-97h87.9c69.4 0 88 .3 88.3 1.2.3 1.1.2 88.2-.1 94-.1 1.7-2.1 1.8-26.4 1.8h-26.3l.1 61.7v61.8H512V362h-53V247H265v-97h52.7l-.1-61.8-.1-61.7H194.3l-.1 61.7z"/></svg>